<?xml version="1.0" encoding="utf-8"?>
<!-- Generator: Adobe Illustrator 16.0.0, SVG Export Plug-In . SVG Version: 6.00 Build 0)  -->
<!DOCTYPE svg PUBLIC "-//W3C//DTD SVG 1.1//EN" "http://www.w3.org/Graphics/SVG/1.1/DTD/svg11.dtd">
<svg version="1.1" id="Billetrie" xmlns="http://www.w3.org/2000/svg" xmlns:xlink="http://www.w3.org/1999/xlink" x="0px" y="0px"
	 width="150px" height="150px" viewBox="0 0 150 150" enable-background="new 0 0 150 150" xml:space="preserve">
<path fill="#FFFFFF" d="M145.896,137.918v-7.295h-4.559c-11.854,0-21.43-13.678-21.43-29.635c0-15.958,10.031-29.636,21.885-29.636
	h4.56v-9.119c0-2.735-7.295-4.559-10.03-4.559H5.927C3.191,57.675,0,59.499,0,62.234v75.684c0,2.735,3.191,6.383,5.927,6.383
	h129.939C138.602,144.301,145.896,140.197,145.896,137.918z"/>
<path fill="#FFFFFF" d="M4.559,53.116c0.456,0,1.368,0,1.824,0h128.115c-4.559-15.502,0.912-31.915,12.767-35.563L150,16.642
	l-2.735-8.663c-0.912-2.735-6.839-2.735-9.575-1.823L5.015,50.38c-1.368,0.456-2.735,2.736-4.104,2.736H4.559z"/>
</svg>
